<svg width="32" height="32" viewBox="0 0 32 32" fill="none" xmlns="http://www.w3.org/2000/svg">
  <circle cx="16" cy="16" r="16" fill="#2775CA"/>
  <path d="M10.08 8.65a9.33 9.33 0 0 0-2.83 7.35 9.33 9.33 0 0 0 2.83 7.35l-1 .95a10.5 10.5 0 0 1 0-16.6l1 .95z" fill="#FFFFFF" fill-opacity="0.85"/>
  <path d="M21.92 8.65a9.33 9.33 0 0 1 2.83 7.35 9.33 9.33 0 0 1-2.83 7.35l1 .95a10.5 10.5 0 0 0 0-16.6l-1 .95z" fill="#FFFFFF" fill-opacity="0.85"/>
  <path d="M16 9.25c-3.74 0-6.77 3.03-6.77 6.77s3.03 6.77 6.77 6.77 6.77-3.03 6.77-6.77S19.74 9.25 16 9.25zm0 11.54c-2.64 0-4.77-2.13-4.77-4.77S13.36 11.25 16 11.25s4.77 2.13 4.77 4.77-2.13 4.77-4.77 4.77z" fill="#FFFFFF"/>
  <path d="M17.64 11.96c0-.97-.78-1.59-2.12-1.68V9.14h-1.14v1.15c-.67.07-1.29.24-1.78.51-.52.3-.8.69-.8 1.15 0 .69.45 1.08 1.39 1.35l1.2.35c.76.22 1.13.43 1.13.75 0 .44-.43.69-1.25.69-.79 0-1.59-.23-2.36-.69l-.5 1.01c.88.5 1.77.78 2.64.85v1.25h1.14v-1.21c1.42-.11 2.24-.77 2.24-1.78 0-.84-.5-1.32-1.54-1.61l-1.24-.36c-.66-.19-.98-.4-.98-.73 0-.38.38-.61 1.07-.61.73 0 1.43.2 2.08.57l.49-1.01c-.67-.4-1.37-.64-2.08-.72z" fill="#FFFFFF"/>
</svg>
